simulation
nRows=49
nColumns=15
endheader
time  TH_x TH_y TH_z SC_y  SC_z  SC_x  AC_y  AC_z  AC_x  GH_y  GH_z  GH_yy  EL_x  PS_y
0.250011  0.000000  0.000000  0.000000  -35.556365  3.324646  21.578947  53.169103  10.075334  -8.494007  -56.665661  17.331552  14.735812  17.477235  111.192233
0.250055  0.000000  0.000000  0.000000  -35.556365  3.324646  24.736842  53.461536  7.542670  -10.402933  -56.665661  17.331552  14.735812  17.477235  111.192233
0.250100  0.000000  0.000000  0.000000  -35.556365  3.324646  27.894737  53.667726  5.001828  -12.289597  -56.665661  17.331552  14.735812  17.477235  111.192233
0.250144  0.000000  0.000000  0.000000  -35.556365  3.324646  31.052632  53.789514  2.455639  -14.161663  -56.665661  17.331552  14.735812  17.477235  111.192233
0.250188  0.000000  0.000000  0.000000  -35.556365  3.324646  34.210526  53.827971  -0.093174  -16.026575  -56.665661  17.331552  14.735812  17.477235  111.192233
0.250232  0.000000  0.000000  0.000000  -35.556365  3.324646  37.368421  53.783443  -2.641882  -17.891769  -56.665661  17.331552  14.735812  17.477235  111.192233
0.250277  0.000000  0.000000  0.000000  -35.556365  3.324646  40.526316  53.655533  -5.187781  -19.764635  -56.665661  17.331552  14.735812  17.477235  111.192233
0.250321  0.000000  0.000000  0.000000  -35.556365  3.324646  43.684211  53.443110  -7.728123  -21.652664  -56.665661  17.331552  14.735812  17.477235  111.192233
0.250365  0.000000  0.000000  0.000000  -35.556365  3.324646  46.842105  53.144291  -10.260070  -23.563519  -56.665661  17.331552  14.735812  17.477235  111.192233
0.250409  0.000000  0.000000  0.000000  -35.556365  3.324646  50.000000  52.756374  -12.780682  -25.505146  -56.665661  17.331552  14.735812  17.477235  111.192233
0.250454  0.000000  0.000000  0.000000  -24.793791  10.944825  -10.000000  46.168953  17.452510  14.215650  -45.695498  15.297767  16.566015  24.075592  110.603696
0.250498  0.000000  0.000000  0.000000  -24.793791  10.944825  -6.842105  46.805216  15.162037  11.950377  -45.695498  15.297767  16.566015  24.075592  110.603696
0.250542  0.000000  0.000000  0.000000  -24.793791  10.944825  -3.684211  47.341816  12.849440  9.733909  -45.695498  15.297767  16.566015  24.075592  110.603696
0.250586  0.000000  0.000000  0.000000  -24.793791  10.944825  -0.526316  47.782611  10.518600  7.558045  -45.695498  15.297767  16.566015  24.075592  110.603696
0.250631  0.000000  0.000000  0.000000  -24.793791  10.944825  2.631579  48.130748  8.173146  5.414929  -45.695498  15.297767  16.566015  24.075592  110.603696
0.250675  0.000000  0.000000  0.000000  -24.793791  10.944825  5.789474  48.388757  5.816545  3.296929  -45.695498  15.297767  16.566015  24.075592  110.603696
0.250719  0.000000  0.000000  0.000000  -24.793791  10.944825  8.947368  48.558507  3.452114  1.196633  -45.695498  15.297767  16.566015  24.075592  110.603696
0.250763  0.000000  0.000000  0.000000  -24.793791  10.944825  12.105263  48.641224  1.083093  -0.893214  -45.695498  15.297767  16.566015  24.075592  110.603696
0.250808  0.000000  0.000000  0.000000  -24.793791  10.944825  15.263158  48.637501  -1.287378  -2.979790  -45.695498  15.297767  16.566015  24.075592  110.603696
0.250852  0.000000  0.000000  0.000000  -24.793791  10.944825  18.421053  48.547316  -3.656136  -5.070253  -45.695498  15.297767  16.566015  24.075592  110.603696
0.250896  0.000000  0.000000  0.000000  -24.793791  10.944825  21.578947  48.370018  -6.020017  -7.171785  -45.695498  15.297767  16.566015  24.075592  110.603696
0.250940  0.000000  0.000000  0.000000  -24.793791  10.944825  24.736842  48.104318  -8.375786  -9.291654  -45.695498  15.297767  16.566015  24.075592  110.603696
0.250985  0.000000  0.000000  0.000000  -24.793791  10.944825  27.894737  47.748304  -10.720115  -11.437292  -45.695498  15.297767  16.566015  24.075592  110.603696
0.251029  0.000000  0.000000  0.000000  -24.793791  10.944825  31.052632  47.299394  -13.049534  -13.616336  -45.695498  15.297767  16.566015  24.075592  110.603696
0.251073  0.000000  0.000000  0.000000  -24.793791  10.944825  34.210526  46.754360  -15.360394  -15.836687  -45.695498  15.297767  16.566015  24.075592  110.603696
0.251117  0.000000  0.000000  0.000000  -24.793791  10.944825  37.368421  46.109305  -17.648761  -18.106551  -45.695498  15.297767  16.566015  24.075592  110.603696
0.251162  0.000000  0.000000  0.000000  -24.793791  10.944825  40.526316  45.359626  -19.910497  -20.434518  -45.695498  15.297767  16.566015  24.075592  110.603696
0.251206  0.000000  0.000000  0.000000  -24.793791  10.944825  43.684211  44.500040  -22.141074  -22.829566  -45.695498  15.297767  16.566015  24.075592  110.603696
0.251250  0.000000  0.000000  0.000000  -24.793791  10.944825  46.842105  43.524576  -24.335588  -25.301092  -45.695498  15.297767  16.566015  24.075592  110.603696
0.251294  0.000000  0.000000  0.000000  -24.793791  10.944825  50.000000  42.426597  -26.488675  -27.858930  -45.695498  15.297767  16.566015  24.075592  110.603696
0.251339  0.000000  0.000000  0.000000  -38.754216  -6.199059  -10.000000  60.107150  41.034131  4.527926  -20.923393  36.380710  7.782676  16.590363  116.870733
0.251383  0.000000  0.000000  0.000000  -38.754216  -6.199059  -6.842105  61.386672  38.278623  2.523679  -20.923393  36.380710  7.782676  16.590363  116.870733
0.251427  0.000000  0.000000  0.000000  -38.754216  -6.199059  -3.684211  62.501529  35.491529  0.666888  -20.923393  36.380710  7.782676  16.590363  116.870733
0.251471  0.000000  0.000000  0.000000  -38.754216  -6.199059  -0.526316  63.472319  32.677905  -1.064762  -20.923393  36.380710  7.782676  16.590363  116.870733
0.251516  0.000000  0.000000  0.000000  -38.754216  -6.199059  2.631579  64.316078  29.841954  -2.690177  -20.923393  36.380710  7.782676  16.590363  116.870733
0.251560  0.000000  0.000000  0.000000  -38.754216  -6.199059  5.789474  65.046906  26.987202  -4.225482  -20.923393  36.380710  7.782676  16.590363  116.870733
0.251604  0.000000  0.000000  0.000000  -38.754216  -6.199059  8.947368  65.676476  24.116638  -5.684541  -20.923393  36.380710  7.782676  16.590363  116.870733
0.251648  0.000000  0.000000  0.000000  -38.754216  -6.199059  12.105263  66.214386  21.232829  -7.079400  -20.923393  36.380710  7.782676  16.590363  116.870733
0.251693  0.000000  0.000000  0.000000  -38.754216  -6.199059  15.263158  66.668546  18.337998  -8.420610  -20.923393  36.380710  7.782676  16.590363  116.870733
0.251737  0.000000  0.000000  0.000000  -38.754216  -6.199059  18.421053  67.045398  15.434099  -9.717538  -20.923393  36.380710  7.782676  16.590363  116.870733
0.251781  0.000000  0.000000  0.000000  -38.754216  -6.199059  21.578947  67.350127  12.522879  -10.978599  -20.923393  36.380710  7.782676  16.590363  116.870733
0.251825  0.000000  0.000000  0.000000  -38.754216  -6.199059  24.736842  67.586806  9.605911  -12.211469  -20.923393  36.380710  7.782676  16.590363  116.870733
0.251870  0.000000  0.000000  0.000000  -38.754216  -6.199059  27.894737  67.758572  6.684661  -13.423242  -20.923393  36.380710  7.782676  16.590363  116.870733
0.251914  0.000000  0.000000  0.000000  -38.754216  -6.199059  31.052632  67.867594  3.760482  -14.620590  -20.923393  36.380710  7.782676  16.590363  116.870733
0.251958  0.000000  0.000000  0.000000  -38.754216  -6.199059  34.210526  67.915293  0.834676  -15.809937  -20.923393  36.380710  7.782676  16.590363  116.870733
0.252002  0.000000  0.000000  0.000000  -38.754216  -6.199059  37.368421  67.902257  -2.091489  -16.997502  -20.923393  36.380710  7.782676  16.590363  116.870733
0.252047  0.000000  0.000000  0.000000  -38.754216  -6.199059  40.526316  67.828342  -5.016757  -18.189513  -20.923393  36.380710  7.782676  16.590363  116.870733
0.252091  0.000000  0.000000  0.000000  -38.754216  -6.199059  43.684211  67.692590  -7.939842  -19.392260  -20.923393  36.380710  7.782676  16.590363  116.870733
0.252135  0.000000  0.000000  0.000000  -38.754216  -6.199059  46.842105  67.493272  -10.859425  -20.612248  -20.923393  36.380710  7.782676  16.590363  116.870733
